<?xml version="1.0" encoding="utf-8"?>
<!-- Generator: Adobe Illustrator 23.0.1, SVG Export Plug-In . SVG Version: 6.00 Build 0)  -->
<svg version="1.1" id="Layer_1" xmlns="http://www.w3.org/2000/svg" xmlns:xlink="http://www.w3.org/1999/xlink" x="0px" y="0px"
	 viewBox="0 0 111 48" style="enable-background:new 0 0 111 48;" xml:space="preserve">
<style type="text/css">
	.st0{fill:#3AE1FD;}
	.st1{fill:#FFFFFF;}
</style>
<g>
	<g>
		<path class="st0" d="M15.2,9.2C7,9.2,0.4,15.8,0.4,24S7,38.8,15.2,38.8S30.1,32.2,30.1,24S23.4,9.2,15.2,9.2z M8.7,17
			c0-3.6,2.9-6.5,6.5-6.5c3.6,0,6.5,2.9,6.5,6.5s-2.9,6.5-6.5,6.5C11.6,23.5,8.7,20.6,8.7,17z M1.6,24c0-5.6,3.4-10.4,8.1-12.5
			c-1.4,1.4-2.2,3.3-2.2,5.4c0,2.8,1.5,5.3,3.8,6.6c-2.6,1.2-3.6,2.7-3.3,5.1c0.3,2.3,1.8,3.7,4.2,3.7c2,0,4,0,6,0
			c1,0,1.9,0.3,2.5,1c1,1.1,1.1,2.1,0.5,2.9c-1.8,0.9-3.8,1.4-5.9,1.4C7.7,37.6,1.6,31.5,1.6,24z M22.5,35.5
			c-0.1-0.3-0.1-0.6-0.2-0.9c-0.5-1.9-1.8-3.1-3.8-3.1c-2,0-4,0-6,0c-2.3,0-3.6-1.3-3.6-3.5c0-2.2,1.3-3.4,3.6-3.4
			c0.4,0,0.8,0,1.3,0c0.5,0.1,1,0.2,1.6,0.2c4.3,0,7.7-3.5,7.7-7.7c0-2.1-0.9-4-2.2-5.4c4.8,2.1,8.1,6.9,8.1,12.5
			C28.9,28.9,26.3,33.1,22.5,35.5z"/>
	</g>
	<g>
		<path class="st1" d="M40.2,31.2c-4.7,0-5.8-1.1-5.8-6.4v-1.6c0-5.2,1.1-6.3,5.8-6.3h0.4c4.3,0,5.5,1,5.5,4.1v0.4h-2.6V21
			c0-1.7-0.5-2.1-2.9-2.1h-0.3c-2.7,0-3.2,0.5-3.2,4.3v1.6c0,3.7,0.5,4.3,3.2,4.3h0.3c2.6,0,3.1-0.5,3.1-2.5v-0.9H40v-2h6.2v2.6
			c0,4-1.1,4.9-5.7,4.9H40.2z"/>
		<path class="st1" d="M59.6,31h-2.7v-1.9c0-2.7-0.4-3-2.9-3h-2.9v5h-2.7V17h6.4c3.8,0,4.7,1,4.7,4.1v0.4c0,2.2-0.6,3.2-2,3.5V25
			c1.6,0.3,2,1,2,3.7V31z M54.6,24.1c1.8,0,2.3-0.5,2.3-2.3v-0.5c0-2-0.5-2.4-2.6-2.4h-3.2v5.1H54.6z"/>
		<path class="st1" d="M73,27.1c0,3.3-1,4.1-5,4.1h-0.5c-5.1,0-5.8-0.7-5.8-3.9v-0.7h2.5v0.5c0,1.7,0.5,2,3,2h0.4
			c2.3,0,2.8-0.3,2.8-1.9v-0.3c0-1.4-0.4-1.8-3.5-2c-4.4-0.3-5.1-1.2-5.1-4v-0.3c0-2.8,1-3.8,4.9-3.8h0.5c4.6,0,5.3,0.9,5.3,3.8v0.6
			h-2.5v-0.4c0-1.5-0.4-1.9-2.7-1.9H67c-2.2,0-2.6,0.3-2.6,1.8v0.3c0,1.3,0.3,1.6,3.4,1.8c4.4,0.4,5.2,1.1,5.2,4V27.1z"/>
		<path class="st1" d="M77.9,31h-2.7V17H81c4.2,0,5.2,0.7,5.2,4.4v0.7c0,3.7-1.1,4.5-5.1,4.5h-3.3V31z M80.8,24.4
			c2.4,0,2.8-0.5,2.8-2.3v-0.8c0-1.9-0.4-2.3-2.8-2.3h-3v5.4H80.8z"/>
		<path class="st1" d="M99.5,31h-2.9l-0.9-3h-6l-0.9,3h-2.8L90.9,17h3.8L99.5,31z M95.1,26.1l-2.3-7.2h-0.1l-2.4,7.2H95.1z"/>
		<path class="st1" d="M105.6,31H103v-4.7L98,17h2.9l3.4,6.9h0.1l3.3-6.9h2.9l-5,9.3V31z"/>
	</g>
</g>
</svg>
