<?xml version="1.0" encoding="utf-8"?>
<!-- Generator: Adobe Illustrator 23.0.1, SVG Export Plug-In . SVG Version: 6.00 Build 0)  -->
<svg version="1.1" id="レイヤー_1" xmlns="http://www.w3.org/2000/svg" xmlns:xlink="http://www.w3.org/1999/xlink" x="0px"
	 y="0px" viewBox="0 0 236.2 102.3" style="enable-background:new 0 0 236.2 102.3;" xml:space="preserve">
<style type="text/css">
	.st0{fill:#3AE1FD;}
	.st1{fill:#FFFFFF;}
</style>
<title>btcpay3</title>
<g>
	<g>
		<path class="st0" d="M31.8,20.3C14.3,20.3,0,34.5,0,52.1s14.3,31.8,31.8,31.8s31.8-14.3,31.8-31.8S49.3,20.3,31.8,20.3z M17.8,37
			c0-7.7,6.3-14,14-14c7.7,0,14,6.3,14,14s-6.3,14-14,14C24.1,51,17.8,44.7,17.8,37z M2.6,52.1c0-11.9,7.2-22.2,17.4-26.7
			c-3,3-4.8,7.1-4.8,11.7c0,6,3.2,11.3,8,14.2c-5.6,2.7-7.7,5.9-7,10.8c0.7,5,3.9,7.9,8.9,8c4.3,0.1,8.6,0.1,13,0
			c2.1,0,4,0.5,5.4,2.1c2.1,2.3,2.3,4.5,1,6.2c-3.8,1.9-8.2,2.9-12.7,2.9C15.7,81.3,2.6,68.2,2.6,52.1z M47.4,76.8
			c-0.2-0.7-0.3-1.3-0.5-1.9c-1-4.2-3.9-6.5-8.2-6.6c-4.3-0.1-8.6,0-13-0.1c-5-0.1-7.8-2.8-7.7-7.6c0.1-4.7,2.8-7.3,7.7-7.4
			c0.9,0,1.8,0,2.7,0c1.1,0.2,2.2,0.3,3.4,0.3c9.1,0,16.6-7.4,16.6-16.6c0-4.5-1.8-8.7-4.8-11.7C53.9,29.9,61,40.2,61,52.1
			C61,62.5,55.6,71.6,47.4,76.8z"/>
	</g>
	<g>
		<path class="st1" d="M85.2,67.5c-10.1,0-12.5-2.3-12.5-13.8v-3.5c0-11.2,2.4-13.6,12.5-13.6h0.8c9.1,0,11.8,2,11.8,8.8v0.9h-5.6
			v-0.6c0-3.5-1-4.5-6.3-4.5h-0.6c-5.8,0-6.8,1.1-6.8,9.1v3.4c0,8,1,9.1,6.9,9.1h0.6c5.5,0,6.6-1,6.6-5.4v-1.9h-7.8v-4.2h13.3v5.5
			c0,8.6-2.4,10.6-12.2,10.6H85.2z"/>
		<path class="st1" d="M126.8,67.2h-5.7V63c0-5.7-0.8-6.5-6.1-6.5h-6.3v10.6H103V37h13.8c8.2,0,10,2.1,10,8.7v0.8
			c0,4.7-1.3,6.8-4.3,7.4v0.2c3.5,0.6,4.3,2.1,4.3,7.9V67.2z M116.2,52.3c3.8,0,4.8-1.1,4.8-4.8v-1c0-4.4-1-5.1-5.5-5.1h-6.8v10.9
			H116.2z"/>
		<path class="st1" d="M155.6,58.7c0,7-2.1,8.7-10.7,8.7h-1.1c-10.8,0-12.3-1.4-12.3-8.4v-1.4h5.4v1.1c0,3.6,1,4.3,6.4,4.3h0.8
			c5,0,5.9-0.7,5.9-4.1v-0.6c0-3-0.8-3.8-7.4-4.3c-9.4-0.7-11-2.7-11-8.6v-0.7c0-5.9,2.1-8.1,10.6-8.1h1.2c9.8,0,11.4,1.9,11.4,8.2
			v1.2h-5.4v-0.9c0-3.2-0.9-4.1-5.9-4.1h-0.8c-4.7,0-5.6,0.7-5.6,3.8v0.6c0,2.8,0.7,3.4,7.3,3.9c9.4,0.8,11.1,2.4,11.1,8.6V58.7z"/>
		<path class="st1" d="M166,67.2h-5.7V37h12.5c9.1,0,11.2,1.6,11.2,9.5V48c0,7.9-2.4,9.5-10.9,9.5H166V67.2z M172.4,53
			c5.2,0,6-1,6-5v-1.6c0-4.2-0.8-5-6-5H166V53H172.4z"/>
		<path class="st1" d="M212.4,67.2h-6.1l-2-6.3h-12.8l-2,6.3h-5.9L194,37h8.1L212.4,67.2z M203,56.6l-4.9-15.4h-0.3l-5.1,15.4H203z"
			/>
		<path class="st1" d="M225.5,67.2h-5.8V57l-10.6-20h6.2l7.3,14.9h0.1l7.1-14.9h6.3l-10.6,20V67.2z"/>
	</g>
</g>
</svg>
