<?xml version="1.0" encoding="utf-8"?>
<!-- Generator: Adobe Illustrator 23.0.1, SVG Export Plug-In . SVG Version: 6.00 Build 0)  -->
<svg version="1.1" id="レイヤー_1" xmlns="http://www.w3.org/2000/svg" xmlns:xlink="http://www.w3.org/1999/xlink" x="0px"
	 y="0px" viewBox="0 0 184 184" style="enable-background:new 0 0 184 184;" xml:space="preserve">
<style type="text/css">
	.st0{fill:#3AE1FD;}
</style>
<title>btcpay</title>
<g>
	<g>
		<path class="st0" d="M92,0C41.3,0,0,41.3,0,92s41.3,92,92,92s92-41.3,92-92S142.7,0,92,0z M51.5,48.3C51.5,26,69.7,7.8,92,7.8
			c22.3,0,40.5,18.2,40.5,40.5S114.3,88.9,92,88.9C69.7,88.9,51.5,70.7,51.5,48.3z M7.4,92c0-34.5,20.8-64.2,50.5-77.3
			C49.3,23.3,44,35.2,44,48.3c0,17.4,9.4,32.6,23.3,41c-16.3,7.7-22.4,17-20.4,31.3c2,14.5,11.2,22.9,25.8,23.2
			c12.5,0.2,25,0.1,37.5,0.1c6.1,0,11.5,1.5,15.7,6.1c5.9,6.5,6.7,13.1,2.8,18.1c-11.1,5.4-23.6,8.4-36.7,8.4
			C45.4,176.5,7.4,138.6,7.4,92z M137,163.5c-0.5-1.9-0.9-3.8-1.4-5.6c-3-12-11.2-18.9-23.6-19.2c-12.5-0.3-25,0-37.5-0.2
			c-14.4-0.2-22.5-8.2-22.3-22c0.2-13.5,8.1-21,22.1-21.3c2.6-0.1,5.3,0,7.9,0.1c3.1,0.6,6.4,1,9.7,1c26.4,0,48-21.5,48-48
			c0-13.1-5.3-25-13.9-33.7c29.7,13.1,50.5,42.8,50.5,77.3C176.5,122.1,160.7,148.5,137,163.5z"/>
	</g>
</g>
</svg>
